<?xml version="1.0" encoding="UTF-8" standalone="no"?>
<svg width="171px" height="32px" viewBox="0 0 171 32" version="1.1" xmlns="http://www.w3.org/2000/svg" xmlns:xlink="http://www.w3.org/1999/xlink" xmlns:sketch="http://www.bohemiancoding.com/sketch/ns">
    <title>logo</title>
    <description>Created with Sketch (http://www.bohemiancoding.com/sketch)</description>
    <defs></defs>
    <g id="Page-1" stroke="none" stroke-width="1" fill="none" fill-rule="evenodd" sketch:type="MSPage">
        <g id="Fill-232-+-INFOMONGO" sketch:type="MSLayerGroup" fill="#FF8000">
            <path d="M21.1363636,17.3333333 C18.4990909,17.3333333 16.3636364,15.244 16.3636364,12.6666667 C16.3636364,10.0893333 18.4990909,8 21.1363636,8 C23.7736364,8 25.9090909,10.0893333 25.9090909,12.6666667 C25.9090909,15.244 23.7736364,17.3333333 21.1363636,17.3333333 M16.5340909,22.8333333 L13.4659091,22.8333333 C12.7159091,22.8333333 12.3763636,22.2973333 12.7118182,21.64 L14.3904545,18.36 C14.7259091,17.7026667 15.2740909,17.7026667 15.6095455,18.36 L17.2881818,21.64 C17.6236364,22.2973333 17.2840909,22.8333333 16.5340909,22.8333333 M8.86363636,17.3333333 C6.22636364,17.3333333 4.09090909,15.244 4.09090909,12.6666667 C4.09090909,10.0893333 6.22636364,8 8.86363636,8 C11.5009091,8 13.6363636,10.0893333 13.6363636,12.6666667 C13.6363636,15.244 11.5009091,17.3333333 8.86363636,17.3333333 M15,0 C6.71590909,0 0,5.96933333 0,13.3333333 C0,16.8706667 1.56136364,20.0786667 4.09090909,22.4653333 L4.09090909,26.6666667 C4.09090909,28.876 5.92227273,30.6666667 8.18181818,30.6666667 C9.36818182,30.6666667 10.4263636,30.1653333 11.1736364,29.3773333 C11.7490909,30.9053333 13.2381818,32 15,32 C16.7618182,32 18.2509091,30.9053333 18.8263636,29.3773333 C19.5736364,30.1653333 20.6318182,30.6666667 21.8181818,30.6666667 C24.0777273,30.6666667 25.9090909,28.876 25.9090909,26.6666667 L25.9090909,22.464 C28.4372727,20.0773333 30,16.8693333 30,13.3333333 C30,5.96933333 23.2813636,0 15,0" id="Fill-232" sketch:type="MSShapeGroup"></path>
            <text id="INFOMONGO" sketch:type="MSTextLayer" font-family="Avenir Next" font-size="20" font-weight="bold">
                <tspan x="36" y="24">INFOMONGO</tspan>
            </text>
        </g>
    </g>
</svg>